<svg xmlns="http://www.w3.org/2000/svg" width="200" height="200" class="icon" p-id="13209" t="1699161216395" version="1.1" viewBox="0 0 1024 1024"><path fill="#FFF" d="M505.6 553.5488v347.7504l354.6624-193.792V356.1984z" p-id="13210"/><path fill="#666" d="M867.5328 319.4624l-369.0496 204.6976L125.696 319.4112a14.08 14.08 0 0 0-20.8384 12.3392v384.1792c0 5.1968 2.8416 9.984 7.424 12.416l379.648 202.5216a14.08 14.08 0 0 0 13.312 0l375.808-202.5472a14.08 14.08 0 0 0 7.3728-12.3904V331.7504a14.08 14.08 0 0 0-20.8896-12.288z m-734.5408 36.096l358.7584 197.0432 2.2016 0.9728a14.08 14.08 0 0 0 11.4176-1.024l354.8928-196.8896v351.8464l-361.7536 194.944-365.5168-194.9952V355.5584z" p-id="13211"/><path fill="#666" d="M489.472 96.8192L111.7952 319.3088a14.08 14.08 0 0 0 0.4096 24.4992l380.2624 208.0256a14.08 14.08 0 0 0 13.568-0.0512l376.0384-208a14.08 14.08 0 0 0 0.3072-24.4736L503.7824 96.8192a14.08 14.08 0 0 0-14.2848 0z m7.168 28.4672l350.1568 205.7984-347.6736 192.3072-351.6928-192.4096L496.64 125.2864z" p-id="13212"/><path fill="#D8D8D8" d="M492.8 552.0128l1.6128 349.2864L130.6112 706.56V356.1984z" p-id="13213"/><path fill="#999" d="M846.8224 331.776L499.2 524.928 147.3536 331.776l349.696-207.6928z" p-id="13214"/><path fill="#666" d="M505.6 537.6v384h-12.8V537.6zM769.5104 576.3328l-102.7584 60.0832a6.4 6.4 0 0 0-3.1744 5.5296v184.6528c0 4.864 5.2224 7.936 9.472 5.632l102.7584-56.1664a6.4 6.4 0 0 0 3.328-5.632V581.888a6.4 6.4 0 0 0-9.6256-5.5296z m-3.1744 16.6656v173.6448l-89.9584 49.152v-170.1888l89.9584-52.608z" p-id="13215"/></svg>