<svg xmlns="http://www.w3.org/2000/svg" width="200" height="200" class="icon" p-id="18130" t="1699161335841" version="1.1" viewBox="0 0 1024 1024"><path fill="#fff" d="M869.607142 414.651858C815.041386 342.142427 635.844098 134.354987 565.077358 54.633295c-2.719948-3.049452-5.561669-5.184069-8.080026-6.012947l-0.781806-1.494027L218.128461 47.12632c-28.28009 0-56.034201 27.915793-56.034201 55.158251l0 786.002514c0 27.916816 28.279067 55.158251 56.034201 55.158251l623.657033 0c29.274744 0 51.15917-28.54308 51.15917-55.158251L892.944664 441.935248 869.607142 414.651858zM561.993113 99.429547l285.030685 330.291518c1.333368 1.790786 3.75758 3.515057 4.915963 3.515057L576.402287 433.236122c-3.797489 0-14.409175-9.917884-14.409175-22.462594L561.993113 99.429547 561.993113 99.429547zM865.365538 888.287085c0 13.999852-12.120039 27.585265-23.580045 27.585265L218.128461 915.872351c-12.766768 0-28.455075-14.663978-28.455075-27.585265L189.673385 102.284571c0-12.342096 15.162328-27.579125 28.455075-27.579125l316.285526 0 0 336.068082c0 22.502503 16.994046 50.034557 41.9883 50.034557l288.963251 0L865.365538 888.287085zM313.780984 391.866922l165.475775 0c7.621585 0 13.791098-6.17463 13.791098-13.790074 0-7.621585-6.167466-13.790074-13.791098-13.790074L313.780984 364.286774c-7.621585 0-13.790074 6.167466-13.790074 13.790074C299.99091 385.692293 306.158377 391.866922 313.780984 391.866922zM297.23003 543.552623c0 7.614421 6.167466 13.792121 13.790074 13.792121l411.347602 0c7.621585 0 13.790074-6.175653 13.790074-13.792121 0-7.621585-6.166443-13.789051-13.790074-13.789051L311.019081 529.763572C303.397496 529.763572 297.23003 535.931039 297.23003 543.552623zM299.99091 709.028399c0 7.614421 6.166443 13.792121 13.790074 13.792121l427.477978 0c7.621585 0 13.790074-6.175653 13.790074-13.792121s-6.166443-13.789051-13.790074-13.789051L313.780984 695.239348C306.158377 695.240371 299.99091 701.413977 299.99091 709.028399z" p-id="18131"/></svg>